<?xml version="1.0" encoding="utf-8"?>
<!-- Generator: Adobe Illustrator 24.2.3, SVG Export Plug-In . SVG Version: 6.00 Build 0)  -->
<svg version="1.1" id="Layer_1" xmlns="http://www.w3.org/2000/svg" xmlns:xlink="http://www.w3.org/1999/xlink" x="0px" y="0px" viewBox="0 0 425.2 201.3" style="enable-background:new 0 0 425.2 201.3;" xml:space="preserve">
<path d="M136.07,37.92h14.99v2.95h-11.84v6.92h11.02v2.95h-11.02v7.45h12.44v2.95h-15.59V37.92z M157.1,37.92h14.99v2.95h-11.84 v6.92h11.02v2.95h-11.02v7.45h12.44v2.95H157.1V37.92z M178.82,56.29c0.57,0.85,1.3,1.48,2.18,1.89c0.89,0.4,1.8,0.61,2.74,0.61 c0.52,0,1.06-0.08,1.61-0.25s1.04-0.41,1.49-0.74c0.45-0.33,0.81-0.73,1.1-1.21c0.28-0.48,0.43-1.04,0.43-1.67 c0-0.9-0.28-1.58-0.85-2.05s-1.27-0.86-2.12-1.18c-0.84-0.32-1.76-0.62-2.76-0.92c-1-0.3-1.91-0.71-2.76-1.23 c-0.84-0.52-1.55-1.23-2.12-2.12c-0.57-0.89-0.85-2.08-0.85-3.59c0-0.68,0.15-1.4,0.44-2.17s0.76-1.47,1.39-2.1 c0.63-0.63,1.45-1.16,2.44-1.59c1-0.43,2.19-0.64,3.59-0.64c1.27,0,2.48,0.18,3.64,0.52c1.16,0.35,2.18,1.06,3.05,2.13l-2.56,2.33 c-0.39-0.61-0.95-1.1-1.67-1.48c-0.72-0.37-1.54-0.56-2.46-0.56c-0.88,0-1.6,0.12-2.18,0.34s-1.04,0.52-1.39,0.89 c-0.35,0.36-0.6,0.75-0.74,1.17c-0.14,0.42-0.21,0.8-0.21,1.15c0,0.98,0.28,1.74,0.85,2.26c0.57,0.53,1.27,0.95,2.12,1.28 c0.84,0.33,1.76,0.62,2.76,0.89c1,0.26,1.91,0.63,2.76,1.1c0.84,0.47,1.55,1.1,2.12,1.9c0.57,0.8,0.85,1.9,0.85,3.3 c0,1.12-0.21,2.12-0.64,3.02c-0.43,0.9-1,1.65-1.72,2.26c-0.72,0.61-1.58,1.08-2.56,1.41s-2.03,0.49-3.15,0.49 c-1.49,0-2.9-0.26-4.23-0.79c-1.33-0.52-2.4-1.33-3.18-2.43L178.82,56.29z M202.21,40.87h-7.48v-2.95h18.11v2.95h-7.48v20.28h-3.15 V40.87z M217.18,37.92h3.15v23.23h-3.15V37.92z M136.76,95.67c0.57,0.85,1.3,1.48,2.18,1.89c0.89,0.4,1.8,0.61,2.74,0.61 c0.52,0,1.06-0.08,1.61-0.25c0.55-0.16,1.04-0.41,1.49-0.74c0.45-0.33,0.81-0.73,1.1-1.21c0.28-0.48,0.43-1.04,0.43-1.67 c0-0.9-0.28-1.58-0.85-2.05s-1.27-0.86-2.12-1.18c-0.84-0.32-1.76-0.62-2.76-0.92c-1-0.3-1.91-0.71-2.76-1.23 c-0.84-0.52-1.55-1.23-2.12-2.12c-0.57-0.89-0.85-2.08-0.85-3.59c0-0.68,0.15-1.4,0.44-2.17s0.76-1.47,1.39-2.1 c0.63-0.63,1.45-1.16,2.44-1.59c1-0.43,2.19-0.64,3.59-0.64c1.27,0,2.48,0.18,3.64,0.52c1.16,0.35,2.18,1.06,3.05,2.13l-2.56,2.33 c-0.39-0.61-0.95-1.1-1.67-1.48c-0.72-0.37-1.54-0.56-2.46-0.56c-0.88,0-1.6,0.12-2.18,0.34s-1.04,0.52-1.39,0.89 c-0.35,0.36-0.6,0.75-0.74,1.17c-0.14,0.42-0.21,0.8-0.21,1.15c0,0.98,0.28,1.74,0.85,2.26c0.57,0.53,1.27,0.95,2.12,1.28 c0.84,0.33,1.76,0.62,2.76,0.89c1,0.26,1.91,0.63,2.76,1.1c0.84,0.47,1.55,1.1,2.12,1.9c0.57,0.8,0.85,1.9,0.85,3.3 c0,1.12-0.21,2.12-0.64,3.02c-0.43,0.9-1,1.65-1.72,2.26c-0.72,0.61-1.58,1.08-2.56,1.41s-2.03,0.49-3.15,0.49 c-1.49,0-2.9-0.26-4.23-0.79c-1.33-0.53-2.4-1.33-3.18-2.43L136.76,95.67z M155.52,77.29h14.99v2.95h-11.84v6.92h11.02v2.95h-11.02 v7.45h12.44v2.95h-15.59V77.29z M196.57,87.53v11.45c-0.57,0.35-1.21,0.66-1.94,0.92c-0.72,0.26-1.47,0.49-2.25,0.67 s-1.56,0.32-2.36,0.41c-0.8,0.09-1.55,0.13-2.25,0.13c-1.97,0-3.72-0.33-5.27-0.98s-2.84-1.54-3.9-2.66 c-1.06-1.12-1.87-2.41-2.43-3.89c-0.56-1.48-0.84-3.04-0.84-4.68c0-1.73,0.3-3.34,0.9-4.82c0.6-1.49,1.43-2.78,2.49-3.87 s2.33-1.95,3.82-2.58c1.49-0.62,3.12-0.94,4.89-0.94c2.14,0,3.89,0.27,5.25,0.8c1.36,0.54,2.49,1.27,3.41,2.21l-2.23,2.4 c-0.96-0.92-1.98-1.56-3.05-1.92c-1.07-0.36-2.2-0.54-3.38-0.54c-1.33,0-2.54,0.25-3.61,0.74s-1.99,1.15-2.76,1.99 c-0.77,0.83-1.36,1.81-1.77,2.94c-0.42,1.13-0.62,2.32-0.62,3.59c0,1.31,0.23,2.53,0.69,3.66c0.46,1.13,1.09,2.11,1.9,2.94 c0.81,0.83,1.76,1.48,2.85,1.95c1.09,0.47,2.29,0.71,3.58,0.71c1.12,0,2.17-0.1,3.17-0.31c1-0.21,1.84-0.51,2.54-0.9v-6.46h-5.15 v-2.95H196.57z M210.81,77.29h2.86l9.94,23.23h-3.67l-2.33-5.74h-11.06l-2.3,5.74h-3.67L210.81,77.29z M216.45,92.02l-4.33-10.66 h-0.07l-4.4,10.66H216.45z M227.84,77.29h3.15v10.04h0.26l10.27-10.04h4.4L234.7,88.02l11.98,12.5h-4.59l-10.83-11.61h-0.26v11.61 h-3.15V77.29z M260.98,101.11c-1.77,0-3.4-0.31-4.89-0.94c-1.49-0.62-2.76-1.48-3.82-2.58c-1.06-1.09-1.89-2.38-2.49-3.87 c-0.6-1.49-0.9-3.09-0.9-4.82c0-1.73,0.3-3.34,0.9-4.82c0.6-1.49,1.43-2.78,2.49-3.87c1.06-1.09,2.33-1.95,3.82-2.58 c1.49-0.62,3.12-0.94,4.89-0.94s3.4,0.31,4.89,0.94c1.49,0.62,2.76,1.48,3.82,2.58c1.06,1.09,1.89,2.38,2.49,3.87 c0.6,1.49,0.9,3.1,0.9,4.82c0,1.73-0.3,3.34-0.9,4.82c-0.6,1.49-1.43,2.78-2.49,3.87c-1.06,1.09-2.34,1.95-3.82,2.58 C264.38,100.8,262.75,101.11,260.98,101.11z M260.98,98.16c1.33,0,2.54-0.25,3.61-0.74c1.07-0.49,1.99-1.15,2.76-1.99 c0.77-0.83,1.36-1.81,1.77-2.94c0.42-1.13,0.62-2.32,0.62-3.59c0-1.27-0.21-2.47-0.62-3.59c-0.42-1.13-1.01-2.1-1.77-2.94 c-0.77-0.83-1.68-1.49-2.76-1.99c-1.07-0.49-2.28-0.74-3.61-0.74s-2.54,0.25-3.61,0.74c-1.07,0.49-1.99,1.15-2.76,1.99 c-0.77,0.83-1.36,1.81-1.77,2.94c-0.42,1.13-0.62,2.32-0.62,3.59c0,1.27,0.21,2.47,0.62,3.59c0.42,1.13,1.01,2.11,1.77,2.94 c0.77,0.83,1.68,1.49,2.76,1.99C258.44,97.91,259.65,98.16,260.98,98.16z M289.49,101.11c-1.77,0-3.4-0.31-4.89-0.94 c-1.49-0.62-2.76-1.48-3.82-2.58c-1.06-1.09-1.89-2.38-2.49-3.87c-0.6-1.49-0.9-3.09-0.9-4.82c0-1.73,0.3-3.34,0.9-4.82 c0.6-1.49,1.43-2.78,2.49-3.87c1.06-1.09,2.33-1.95,3.82-2.58c1.49-0.62,3.12-0.94,4.89-0.94s3.4,0.31,4.89,0.94 c1.49,0.62,2.76,1.48,3.82,2.58c1.06,1.09,1.89,2.38,2.49,3.87c0.6,1.49,0.9,3.1,0.9,4.82c0,1.73-0.3,3.34-0.9,4.82 c-0.6,1.49-1.43,2.78-2.49,3.87c-1.06,1.09-2.34,1.95-3.82,2.58C292.89,100.8,291.26,101.11,289.49,101.11z M289.49,98.16 c1.33,0,2.54-0.25,3.61-0.74c1.07-0.49,1.99-1.15,2.76-1.99c0.77-0.83,1.36-1.81,1.77-2.94c0.42-1.13,0.62-2.32,0.62-3.59 c0-1.27-0.21-2.47-0.62-3.59c-0.42-1.13-1.01-2.1-1.77-2.94c-0.77-0.83-1.68-1.49-2.76-1.99c-1.07-0.49-2.28-0.74-3.61-0.74 s-2.54,0.25-3.61,0.74c-1.07,0.49-1.99,1.15-2.76,1.99c-0.77,0.83-1.36,1.81-1.77,2.94c-0.42,1.13-0.62,2.32-0.62,3.59 c0,1.27,0.21,2.47,0.62,3.59c0.42,1.13,1.01,2.11,1.77,2.94c0.77,0.83,1.68,1.49,2.76,1.99C286.95,97.91,288.16,98.16,289.49,98.16z  M307.34,77.29h8.17c1.49,0,2.71,0.2,3.67,0.61c0.96,0.41,1.72,0.92,2.28,1.54c0.56,0.62,0.95,1.32,1.17,2.1 c0.22,0.78,0.33,1.53,0.33,2.25c0,0.74-0.13,1.46-0.39,2.15c-0.26,0.69-0.64,1.31-1.13,1.87s-1.09,1.03-1.8,1.41 c-0.71,0.38-1.5,0.62-2.38,0.71l6.6,10.6h-3.94L314,90.28h-3.51v10.24h-3.15V77.29z M310.49,87.53h4.13c0.61,0,1.22-0.05,1.82-0.15 c0.6-0.1,1.14-0.28,1.61-0.54c0.47-0.26,0.85-0.64,1.13-1.13c0.28-0.49,0.43-1.13,0.43-1.92c0-0.79-0.14-1.43-0.43-1.92 c-0.29-0.49-0.66-0.87-1.13-1.13c-0.47-0.26-1.01-0.44-1.61-0.54c-0.6-0.1-1.21-0.15-1.82-0.15h-4.13V87.53z M328.6,77.29h3.15 v23.23h-3.15V77.29z M338.41,77.29h8.1c1.64,0,3.08,0.19,4.31,0.56c1.24,0.37,2.31,0.87,3.22,1.49c0.91,0.62,1.66,1.34,2.26,2.15 c0.6,0.81,1.08,1.64,1.43,2.49c0.35,0.85,0.6,1.71,0.75,2.56s0.23,1.64,0.23,2.36c0,1.49-0.27,2.93-0.82,4.31 c-0.55,1.39-1.36,2.62-2.43,3.71c-1.07,1.08-2.4,1.95-3.99,2.61s-3.42,0.98-5.5,0.98h-7.58V77.29z M341.56,97.57h3.97 c1.33,0,2.6-0.18,3.79-0.54c1.19-0.36,2.24-0.9,3.13-1.62c0.9-0.72,1.61-1.62,2.13-2.71c0.53-1.08,0.79-2.35,0.79-3.79 c0-0.74-0.12-1.61-0.36-2.61c-0.24-1-0.69-1.94-1.36-2.84c-0.67-0.9-1.59-1.66-2.77-2.28c-1.18-0.62-2.71-0.94-4.59-0.94h-4.73 V97.57z M364.47,77.29h15v2.95h-11.84v6.92h11.02v2.95h-11.02v7.45h12.44v2.95h-15.59V77.29z M136.07,116.66h3.15v20.28h10.66v2.95 h-13.81V116.66z M155.2,116.66h3.15v23.23h-3.15V116.66z M166.42,116.66h3.15v23.23h-3.15V116.66z M182.5,119.62h-7.48v-2.95h18.11 v2.95h-7.48v20.28h-3.15V119.62z M63.49,85.28v26.46c0,4.86,3.95,8.81,8.81,8.81v2.6c-6.29,0-11.41-5.12-11.41-11.41V84.26 C61.73,84.64,62.6,84.98,63.49,85.28z M72.3,45.91c-6.29,0-11.41,5.12-11.41,11.41v19.16c-2.77-1.8-5.12-4.25-6.78-7.17 c-1.8-3.15-2.75-6.74-2.75-10.37C51.35,47.4,60.75,38,72.3,38v-2.6c-12.98,0-23.55,10.56-23.55,23.55c0,4.09,1.07,8.12,3.09,11.66 c3.6,6.31,10.04,10.67,17.21,11.66v0c1.1,0.15,2.19,0.23,3.25,0.23v-2.6c-0.94,0-1.91-0.07-2.89-0.2h0 c-2.06-0.28-4.06-0.89-5.92-1.76V57.32c0-4.86,3.95-8.81,8.81-8.81c4.86,0,8.81,3.95,8.81,8.81v1.63h2.6v-1.63 C83.71,51.03,78.59,45.91,72.3,45.91z M104.96,110.21c0,13.52-9.02,24.97-21.35,28.66v21.61h0c0,0,0,0,0,0 c0,2.99-4.01,5.41-8.97,5.41s-8.97-2.42-8.97-5.41c0-2.99,4.01-5.41,8.97-5.41c2.49,0,4.74,0.61,6.37,1.6v-17.15 c-1.93,0.39-3.92,0.6-5.96,0.6c-16.49,0-29.91-13.42-29.91-29.91h2.6c0,15.06,12.25,27.31,27.31,27.31c2.05,0,4.04-0.23,5.96-0.65 V80.86l1.63,0.43c7.72,2.02,14.42,7.16,18.39,14.12C103.6,99.9,104.96,105.02,104.96,110.21z M102.36,110.21 c0-4.74-1.24-9.41-3.59-13.52c-3.35-5.86-8.81-10.31-15.16-12.41v51.87C94.49,132.55,102.36,122.28,102.36,110.21z"/>
</svg>
